<svg version="1.1" id="Layer_1" xmlns="http://www.w3.org/2000/svg" xmlns:xlink="http://www.w3.org/1999/xlink" x="0px" y="0px"
	 width="100%" viewBox="0 0 371 339" enable-background="new 0 0 371 339" xml:space="preserve">
<path fill="#FEFEFE" opacity="1.000000" stroke="none" 
	d="
M209.000000,340.000000 
	C139.333344,340.000000 70.166695,340.000000 1.000028,340.000000 
	C1.000019,227.000031 1.000019,114.000069 1.000009,1.000073 
	C124.666618,1.000049 248.333237,1.000049 371.999878,1.000024 
	C371.999939,113.999931 371.999939,226.999863 371.999969,339.999878 
	C317.833344,340.000000 263.666656,340.000000 209.000000,340.000000 
M233.507599,45.658997 
	C231.379349,47.222095 229.020889,48.551785 227.160629,50.386604 
	C216.013260,61.381443 204.966263,72.478294 193.918427,83.573624 
	C190.791473,86.714020 187.774368,89.963783 184.567490,93.308784 
	C182.667587,91.490097 181.331711,90.257866 180.047028,88.974373 
	C166.849213,75.788719 153.683533,62.570789 140.454758,49.416325 
	C135.898392,44.885571 131.264984,43.887394 126.989899,46.249859 
	C120.300331,49.946594 119.666885,57.627361 125.762466,63.787659 
	C138.181229,76.338280 150.702042,88.788055 163.207764,101.252350 
	C165.295273,103.332954 167.518707,105.277191 170.142227,107.714462 
	C166.172791,111.211319 162.996216,114.312523 159.491547,116.983177 
	C157.399780,118.577148 154.351166,119.031372 152.495224,120.798729 
	C144.656845,128.263046 137.102905,136.026154 129.448486,143.683548 
	C118.570297,154.565918 118.566528,156.204697 129.376053,166.846130 
	C134.726639,172.113510 139.465408,172.547668 144.294205,166.763489 
	C154.580521,154.442017 170.160507,146.857239 176.165375,130.623932 
	C177.405685,127.270958 180.932205,124.763680 184.013763,121.153427 
	C187.316422,124.842590 189.697830,127.391510 191.930771,130.064438 
	C192.605118,130.871643 192.881393,132.016876 193.315994,133.017700 
	C194.112839,134.852692 194.450134,137.123077 195.749908,138.465576 
	C204.206787,147.200500 212.869476,155.736237 221.468002,164.333954 
	C230.340714,173.205856 232.893845,173.187469 241.865448,164.200104 
	C242.218475,163.846436 242.575790,163.496933 242.924973,163.139511 
	C248.640991,157.288422 248.656097,153.161377 242.821167,147.334808 
	C233.627609,138.154404 224.386108,129.021820 215.129761,119.904701 
	C214.079041,118.869774 212.844986,117.344376 211.623611,117.272308 
	C205.099030,116.887306 203.441040,110.947166 198.985153,107.725006 
	C214.048050,92.713493 228.545547,78.243279 243.072906,63.803127 
	C246.699295,60.198513 248.323746,56.058098 246.284012,51.153309 
	C244.397339,46.616573 240.244965,44.779091 233.507599,45.658997 
M141.022827,253.838913 
	C142.563049,253.221237 144.140457,252.682053 145.637405,251.972992 
	C154.577011,247.738464 160.280045,237.751938 159.391876,227.969055 
	C158.307968,216.029984 152.322830,207.181747 141.813766,205.293167 
	C132.498367,203.619110 122.802513,204.062210 113.246536,203.569260 
	C113.246536,221.229584 113.246536,237.789825 113.246536,255.225357 
	C122.417030,254.801239 131.312607,254.389847 141.022827,253.838913 
M70.860138,231.499954 
	C70.860138,239.114380 70.860138,246.728821 70.860138,254.564270 
	C83.433426,254.564270 95.483299,254.564270 107.749069,254.564270 
	C107.749069,251.176300 107.749069,248.082138 107.749069,244.261810 
	C99.211151,244.261810 90.846817,244.261810 82.509064,244.261810 
	C82.509064,240.458481 82.509064,237.389023 82.509064,233.889618 
	C90.422722,233.889618 98.008560,233.889618 105.637939,233.889618 
	C105.637939,230.388412 105.637939,227.335175 105.637939,223.846664 
	C97.735649,223.846664 90.153473,223.846664 82.452003,223.846664 
	C82.452003,220.650772 82.452003,217.906433 82.452003,214.605682 
	C90.955429,214.605682 99.202263,214.605682 107.637924,214.605682 
	C107.637924,210.821671 107.637924,207.601212 107.637924,204.296280 
	C95.290352,204.296280 83.233307,204.296280 70.860832,204.296280 
	C70.860832,213.234009 70.860832,221.866989 70.860138,231.499954 
M319.499878,271.407196 
	C326.755829,271.407196 334.011749,271.407196 341.191010,271.407196 
	C342.538025,265.389648 338.467163,267.054199 336.197235,267.052826 
	C234.902008,266.990540 133.606750,266.998688 32.311501,266.998474 
	C30.685053,266.998474 29.058605,266.998474 27.472752,266.998474 
	C25.878979,272.448547 29.585115,271.384003 32.107555,271.384705 
	C127.571655,271.411285 223.035767,271.407349 319.499878,271.407196 
M202.572800,254.461823 
	C204.117630,254.078278 205.718109,253.228882 207.196014,253.405487 
	C210.559250,253.807373 213.862305,254.712982 217.567963,255.493515 
	C217.567963,237.630203 217.567963,220.944489 217.567963,204.237671 
	C214.128372,204.237671 211.031418,204.237671 207.421219,204.237671 
	C207.421219,209.230270 207.421219,213.984360 207.421219,219.192200 
	C205.273376,218.439484 203.751678,217.828140 202.185272,217.369415 
	C187.657394,213.114853 174.346054,225.848358 177.883804,240.598007 
	C180.402374,251.098495 188.837341,256.089264 202.572800,254.461823 
M292.617157,252.975479 
	C296.186462,253.826248 299.755768,254.677032 303.694641,255.615906 
	C303.694641,241.889496 303.694641,229.494171 303.694641,216.833313 
	C301.068024,216.833313 298.100494,215.916946 296.562592,217.010712 
	C292.478760,219.915161 289.001617,217.223495 285.325775,216.770554 
	C277.279785,215.779053 269.992645,219.275528 265.996552,226.304321 
	C261.927948,233.460602 262.789948,242.672897 268.090637,248.684494 
	C273.902435,255.275742 282.409607,256.908569 292.617157,252.975479 
M257.218689,245.204788 
	C255.375229,244.112946 253.531769,243.021103 251.756927,241.969894 
	C242.838730,249.471146 233.936249,248.192917 232.170959,238.951782 
	C241.488129,238.951782 250.738373,238.951782 259.898102,238.951782 
	C261.545471,230.783569 258.467865,222.988876 252.268188,219.030655 
	C243.385300,213.359360 230.623840,215.856201 224.674362,224.429520 
	C218.758286,232.954742 220.648315,245.576782 228.777588,251.831970 
	C236.535172,257.801117 251.462830,256.238068 257.458130,248.711578 
	C258.004761,248.025360 257.700745,246.661560 257.218689,245.204788 
M39.256889,240.937149 
	C37.977242,235.677704 37.345688,235.458313 27.476297,236.844696 
	C26.602907,246.046112 32.252773,253.523010 41.264988,255.092285 
	C52.824837,257.105164 62.774120,252.407043 63.762810,242.487335 
	C65.019714,229.876480 64.067078,217.045395 64.067078,204.338623 
	C60.746670,204.338623 57.183872,204.338623 53.243744,204.338623 
	C53.243744,215.331223 53.274017,225.972168 53.226776,236.612762 
	C53.210957,240.176346 52.093945,243.407455 48.418755,244.582565 
	C44.995739,245.677032 41.815849,244.861389 39.256889,240.937149 
M329.016754,242.480484 
	C331.556732,245.029449 330.287292,247.151810 327.584717,247.502243 
	C325.003906,247.836899 320.854675,247.596115 319.793365,246.006714 
	C316.370636,240.880905 312.119141,243.394852 307.950195,243.017807 
	C307.869049,247.879044 310.296875,250.685181 313.745026,252.727951 
	C319.574493,256.181458 325.842682,256.112091 332.108154,254.356415 
	C338.288971,252.624451 341.572296,248.439972 341.518707,242.997543 
	C341.465271,237.571564 338.548767,234.412445 331.808289,232.712524 
	C328.427063,231.859787 324.928711,231.430222 321.600098,230.423264 
	C318.949219,229.621338 317.220276,227.078476 319.981934,225.416367 
	C322.026154,224.186020 327.249176,224.237930 327.962219,225.486084 
	C331.082184,230.947311 335.598297,228.479645 339.933563,228.923004 
	C339.760468,227.689178 339.775269,226.692078 339.471771,225.803711 
	C336.798584,217.979599 327.435822,214.288132 317.627899,217.145416 
	C311.640686,218.889618 307.967834,223.522476 308.158081,229.090546 
	C308.353058,234.797287 311.612030,238.434341 318.041107,239.942078 
	C321.439362,240.739044 324.878082,241.363632 329.016754,242.480484 
M173.902557,220.696716 
	C173.421524,216.382660 171.188644,215.693283 163.961197,217.558578 
	C163.961197,229.940475 163.961197,242.285309 163.961197,254.456314 
	C167.516602,254.456314 170.580582,254.456314 173.902710,254.456314 
	C173.902710,243.257828 173.902710,232.457626 173.902557,220.696716 
M284.542084,304.857269 
	C284.542084,297.036102 284.542084,289.214935 284.542084,281.393768 
	C284.191467,281.327240 283.840851,281.260742 283.490204,281.194214 
	C279.835175,285.795807 276.180145,290.397369 272.286407,295.299500 
	C268.269012,290.290527 264.592896,285.707123 259.978058,279.953247 
	C259.978058,285.531342 259.978058,289.601715 259.978058,293.672089 
	C259.978058,297.735504 259.978058,301.798950 259.978058,305.862366 
	C260.688995,305.975586 261.399963,306.088806 262.110901,306.202026 
	C265.070038,301.772583 261.834686,295.768799 264.205383,290.680511 
	C267.091339,294.251495 269.625244,297.386810 272.362366,300.773590 
	C275.288574,297.010468 277.822906,293.751312 281.130035,289.498352 
	C281.130035,294.991241 281.157745,298.976257 281.118805,302.960602 
	C281.098022,305.088959 281.350952,306.777618 284.542084,304.857269 
M69.870674,305.929840 
	C77.757294,303.501526 79.405151,297.908386 74.285645,291.249847 
	C73.732979,290.531067 73.409111,289.311340 73.564140,288.426483 
	C74.529839,282.914734 73.168686,280.986115 67.691750,280.738770 
	C64.745094,280.605713 61.787476,280.715118 58.675442,280.715118 
	C58.675442,289.416016 58.675442,297.597443 58.675442,306.003448 
	C62.366810,306.003448 65.680504,306.003448 69.870674,305.929840 
M180.314835,280.882294 
	C179.994492,288.707184 179.634705,296.531097 179.441345,304.359131 
	C179.428268,304.888336 180.604202,305.664642 181.357712,305.890564 
	C181.669968,305.984192 182.662949,304.986816 182.761917,304.388885 
	C183.046265,302.670929 183.032242,300.903595 183.095657,299.829620 
	C190.799606,295.577759 190.231644,307.753326 197.001312,305.684662 
	C195.461029,303.311890 194.051529,301.140625 192.673782,299.018250 
	C197.659592,294.714111 198.903534,290.926666 197.176346,286.207306 
	C195.321838,281.140076 191.111938,280.665833 186.619263,280.693665 
	C184.795883,280.704987 182.972488,280.715912 180.314835,280.882294 
M105.149178,300.266205 
	C101.904808,296.062958 101.760040,291.580597 104.671677,287.316956 
	C107.569168,283.074005 111.977074,283.388031 116.422020,284.297546 
	C117.602165,284.539001 118.868782,284.357788 120.095688,284.370667 
	C119.046478,283.325562 118.181183,281.819031 116.916344,281.314880 
	C111.310539,279.080414 104.605667,281.246399 101.389519,286.049652 
	C97.983688,291.136200 98.555481,298.338409 102.710365,302.687042 
	C106.077415,306.211090 114.617912,307.438416 119.010872,304.882904 
	C119.875687,304.379852 120.891235,303.273804 120.945618,302.390930 
	C121.165504,298.821259 121.036858,295.230133 121.036858,290.620697 
	C117.759979,291.513794 115.420944,292.151276 113.081917,292.788788 
	C114.508339,293.762543 115.934753,294.736298 117.588341,295.865112 
	C118.171707,302.495605 114.835831,305.011505 108.264336,302.381622 
	C107.356407,302.018311 106.568321,301.355530 105.149178,300.266205 
M169.024582,288.745819 
	C165.553528,281.263458 158.267731,278.755829 148.478745,281.614685 
	C148.478745,289.704041 148.478745,297.761383 148.478745,305.776978 
	C165.436615,307.001343 171.747589,301.948303 169.024582,288.745819 
M210.719360,299.409607 
	C210.719360,297.490326 210.719360,295.571075 210.719360,293.279724 
	C212.988922,293.279724 214.505829,293.475861 215.936188,293.208710 
	C216.844193,293.039124 217.623505,292.180634 218.460541,291.631104 
	C217.655655,291.075470 216.906448,290.181702 216.033722,290.037933 
	C214.452789,289.777527 212.798218,289.964203 211.072083,289.964203 
	C211.072083,287.760742 211.072083,286.057404 211.072083,283.995361 
	C214.865311,283.995361 218.320236,283.995361 221.829666,283.995361 
	C221.243118,280.447937 215.969376,279.598297 207.482407,281.342438 
	C207.482407,289.432251 207.482407,297.526581 207.482407,305.711334 
	C212.691864,305.711334 217.597565,305.711334 222.503281,305.711334 
	C222.081650,304.094116 221.247726,303.153015 220.318329,303.046692 
	C218.179459,302.802063 215.937469,303.253571 213.850006,302.845795 
	C212.691284,302.619415 211.759064,301.233459 210.719360,299.409607 
M246.396378,301.725586 
	C247.644394,303.298676 248.892395,304.871765 250.140396,306.444855 
	C250.634796,306.081390 251.129196,305.717926 251.623596,305.354462 
	C248.080750,297.200043 244.537918,289.045593 240.616272,280.019287 
	C236.681503,289.104675 233.156586,297.243713 229.631668,305.382721 
	C230.084732,305.751190 230.537796,306.119659 230.990860,306.488129 
	C232.748032,304.680023 234.220490,301.933105 236.331818,301.292847 
	C239.205475,300.421387 242.566910,301.158417 246.396378,301.725586 
M307.189636,304.972260 
	C311.234283,300.799927 311.152405,297.085022 306.802185,293.709015 
	C305.236053,292.493591 303.248840,291.782318 301.805725,290.457550 
	C300.360352,289.130798 299.354340,287.325409 298.155762,285.729828 
	C300.225128,285.151520 302.276367,284.491425 304.370880,284.026276 
	C305.583160,283.757050 306.865143,283.801788 308.115784,283.705231 
	C307.140381,281.918030 306.174042,281.270508 305.110443,280.984100 
	C300.295868,279.687531 296.113800,281.147949 294.879517,284.660248 
	C293.256317,289.279327 296.522705,291.266205 299.751892,293.229584 
	C301.453461,294.264160 303.395233,295.123108 304.677551,296.554840 
	C305.615936,297.602600 306.230713,299.599365 305.902924,300.898926 
	C305.669800,301.823120 303.645477,302.794830 302.388031,302.840088 
	C300.657043,302.902313 298.913147,301.927094 297.139923,301.754791 
	C296.130188,301.656647 295.051147,302.271851 293.265991,302.772705 
	C297.975800,306.394958 302.080475,306.752502 307.189636,304.972260 
M167.736221,213.626480 
	C169.675018,213.626480 171.613815,213.626480 173.604645,213.626480 
	C173.604645,210.074234 173.604645,207.182617 173.604645,204.168961 
	C170.182846,204.168961 167.086899,204.168961 163.429291,204.168961 
	C163.429291,206.311737 163.541641,208.267609 163.401688,210.205246 
	C163.213943,212.804214 164.288162,213.924286 167.736221,213.626480 
M87.524223,280.684113 
	C87.114311,280.931519 86.349983,281.173401 86.346008,281.427185 
	C86.227226,289.016479 86.141930,296.607269 86.206650,304.196503 
	C86.211884,304.810272 87.327423,305.414551 87.927032,306.023254 
	C88.549782,305.258362 89.698593,304.503387 89.713211,303.727020 
	C89.846977,296.623535 89.817451,289.515900 89.714470,282.411194 
	C89.706139,281.836761 88.799568,281.275299 87.524223,280.684113 
z"/>
<path fill="#536373" opacity="1.000000" stroke="none" 
	d="
M233.881958,45.535439 
	C240.244965,44.779091 244.397339,46.616573 246.284012,51.153309 
	C248.323746,56.058098 246.699295,60.198513 243.072906,63.803127 
	C228.545547,78.243279 214.048050,92.713493 198.985153,107.725006 
	C203.441040,110.947166 205.099030,116.887306 211.623611,117.272308 
	C212.844986,117.344376 214.079041,118.869774 215.129761,119.904701 
	C224.386108,129.021820 233.627609,138.154404 242.821167,147.334808 
	C248.656097,153.161377 248.640991,157.288422 242.924973,163.139511 
	C242.575790,163.496933 242.218475,163.846436 241.865448,164.200104 
	C232.893845,173.187469 230.340714,173.205856 221.468002,164.333954 
	C212.869476,155.736237 204.206787,147.200500 195.749908,138.465576 
	C194.450134,137.123077 194.112839,134.852692 193.315994,133.017700 
	C192.881393,132.016876 192.605118,130.871643 191.930771,130.064438 
	C189.697830,127.391510 187.316422,124.842590 184.013763,121.153427 
	C180.932205,124.763680 177.405685,127.270958 176.165375,130.623932 
	C170.160507,146.857239 154.580521,154.442017 144.294205,166.763489 
	C139.465408,172.547668 134.726639,172.113510 129.376053,166.846130 
	C118.566528,156.204697 118.570297,154.565918 129.448486,143.683548 
	C137.102905,136.026154 144.656845,128.263046 152.495224,120.798729 
	C154.351166,119.031372 157.399780,118.577148 159.491547,116.983177 
	C162.996216,114.312523 166.172791,111.211319 170.142227,107.714462 
	C167.518707,105.277191 165.295273,103.332954 163.207764,101.252350 
	C150.702042,88.788055 138.181229,76.338280 125.762466,63.787659 
	C119.666885,57.627361 120.300331,49.946594 126.989899,46.249859 
	C131.264984,43.887394 135.898392,44.885571 140.454758,49.416325 
	C153.683533,62.570789 166.849213,75.788719 180.047028,88.974373 
	C181.331711,90.257866 182.667587,91.490097 184.567490,93.308784 
	C187.774368,89.963783 190.791473,86.714020 193.918427,83.573624 
	C204.966263,72.478294 216.013260,61.381443 227.160629,50.386604 
	C229.020889,48.551785 231.379349,47.222095 233.881958,45.535439 
M181.395935,114.895790 
	C192.717422,103.621979 204.038345,92.347572 215.360611,81.074539 
	C222.790421,73.677017 230.323837,66.378059 237.544037,58.781384 
	C238.633301,57.635311 238.265915,55.104782 238.572342,53.214661 
	C236.833832,53.666409 235.068878,54.039963 233.371689,54.613888 
	C232.805893,54.805222 232.413422,55.509449 231.942047,55.979557 
	C210.731079,77.134613 189.517410,98.286972 168.317764,119.453369 
	C167.324753,120.444824 166.456512,121.561249 165.645218,122.488022 
	C166.968277,124.061462 168.037338,125.332855 169.807877,127.438461 
	C173.713577,123.195488 177.304047,119.294968 181.395935,114.895790 
M159.403061,127.225548 
	C157.976074,127.702080 156.162216,127.776535 155.183105,128.718567 
	C147.167725,136.430374 139.298813,144.294708 131.412277,152.139755 
	C130.411331,153.135422 129.565750,154.287262 128.399582,155.659241 
	C131.455078,158.553055 134.139175,161.095139 136.647919,163.471146 
	C146.688751,153.219330 156.155441,143.553741 166.209763,133.288162 
	C164.367447,131.665817 162.124466,129.690628 159.403061,127.225548 
M224.630157,156.881592 
	C226.594162,159.345535 228.558167,161.809494 230.941010,164.798904 
	C234.686447,161.022049 237.312180,158.374283 239.283463,156.386459 
	C229.198486,146.229813 219.568253,136.531128 209.832397,126.726082 
	C207.535248,129.025574 204.846542,131.717041 202.449753,134.116287 
	C209.750687,141.616516 216.937866,148.999878 224.630157,156.881592 
M157.065125,76.434700 
	C149.627762,69.040993 142.259171,61.575142 134.670807,54.339798 
	C133.659302,53.375351 131.533676,53.579395 129.923996,53.242310 
	C130.124054,54.983681 129.657257,57.370689 130.624283,58.369492 
	C144.973999,73.190598 159.513687,87.827774 174.134430,102.636047 
	C175.949615,100.875320 177.213348,99.649498 178.636536,98.268990 
	C171.560776,91.104050 164.563614,84.018715 157.065125,76.434700 
M191.432083,118.972801 
	C193.699265,121.817612 195.966431,124.662430 198.395172,127.709969 
	C200.867416,125.111992 202.079300,123.838470 203.460861,122.386650 
	C200.145203,119.212646 197.054184,116.253670 192.853775,112.232712 
	C192.031647,114.893593 191.482834,116.669815 191.432083,118.972801 
z"/>
<path fill="#4F606F" opacity="1.000000" stroke="none" 
	d="
M140.615509,253.908691 
	C131.312607,254.389847 122.417030,254.801239 113.246536,255.225357 
	C113.246536,237.789825 113.246536,221.229584 113.246536,203.569260 
	C122.802513,204.062210 132.498367,203.619110 141.813766,205.293167 
	C152.322830,207.181747 158.307968,216.029984 159.391876,227.969055 
	C160.280045,237.751938 154.577011,247.738464 145.637405,251.972992 
	C144.140457,252.682053 142.563049,253.221237 140.615509,253.908691 
M124.400230,232.476440 
	C124.400230,236.246460 124.400230,240.016479 124.400230,243.921783 
	C132.816116,244.378418 140.800369,245.394302 145.821579,237.244049 
	C149.019974,232.052536 148.701706,224.969589 145.126114,220.368896 
	C139.730850,213.426849 132.291702,214.239410 125.042183,214.654358 
	C124.721954,215.472260 124.503990,215.772385 124.501099,216.074570 
	C124.452065,221.211777 124.429710,226.349243 124.400230,232.476440 
z"/>
<path fill="#516171" opacity="1.000000" stroke="none" 
	d="
M70.860489,230.999969 
	C70.860832,221.866989 70.860832,213.234009 70.860832,204.296280 
	C83.233307,204.296280 95.290352,204.296280 107.637924,204.296280 
	C107.637924,207.601212 107.637924,210.821671 107.637924,214.605682 
	C99.202263,214.605682 90.955429,214.605682 82.452003,214.605682 
	C82.452003,217.906433 82.452003,220.650772 82.452003,223.846664 
	C90.153473,223.846664 97.735649,223.846664 105.637939,223.846664 
	C105.637939,227.335175 105.637939,230.388412 105.637939,233.889618 
	C98.008560,233.889618 90.422722,233.889618 82.509064,233.889618 
	C82.509064,237.389023 82.509064,240.458481 82.509064,244.261810 
	C90.846817,244.261810 99.211151,244.261810 107.749069,244.261810 
	C107.749069,248.082138 107.749069,251.176300 107.749069,254.564270 
	C95.483299,254.564270 83.433426,254.564270 70.860138,254.564270 
	C70.860138,246.728821 70.860138,239.114380 70.860489,230.999969 
z"/>
<path fill="#4C5D6D" opacity="1.000000" stroke="none" 
	d="
M318.999878,271.407349 
	C223.035767,271.407349 127.571655,271.411285 32.107555,271.384705 
	C29.585115,271.384003 25.878979,272.448547 27.472752,266.998474 
	C29.058605,266.998474 30.685053,266.998474 32.311501,266.998474 
	C133.606750,266.998688 234.902008,266.990540 336.197235,267.052826 
	C338.467163,267.054199 342.538025,265.389648 341.191010,271.407196 
	C334.011749,271.407196 326.755829,271.407196 318.999878,271.407349 
z"/>
<path fill="#516171" opacity="1.000000" stroke="none" 
	d="
M202.163239,254.591522 
	C188.837341,256.089264 180.402374,251.098495 177.883804,240.598007 
	C174.346054,225.848358 187.657394,213.114853 202.185272,217.369415 
	C203.751678,217.828140 205.273376,218.439484 207.421219,219.192200 
	C207.421219,213.984360 207.421219,209.230270 207.421219,204.237671 
	C211.031418,204.237671 214.128372,204.237671 217.567963,204.237671 
	C217.567963,220.944489 217.567963,237.630203 217.567963,255.493515 
	C213.862305,254.712982 210.559250,253.807373 207.196014,253.405487 
	C205.718109,253.228882 204.117630,254.078278 202.163239,254.591522 
M196.639969,246.079193 
	C203.249146,245.681030 207.518845,241.947327 207.687027,236.418930 
	C207.842224,231.317474 203.882599,226.610825 198.907394,225.982895 
	C193.265793,225.270889 188.715881,228.483688 187.578430,233.982574 
	C186.407028,239.645508 189.522964,244.189606 196.639969,246.079193 
z"/>
<path fill="#4F606F" opacity="1.000000" stroke="none" 
	d="
M292.222198,253.107971 
	C282.409607,256.908569 273.902435,255.275742 268.090637,248.684494 
	C262.789948,242.672897 261.927948,233.460602 265.996552,226.304321 
	C269.992645,219.275528 277.279785,215.779053 285.325775,216.770554 
	C289.001617,217.223495 292.478760,219.915161 296.562592,217.010712 
	C298.100494,215.916946 301.068024,216.833313 303.694641,216.833313 
	C303.694641,229.494171 303.694641,241.889496 303.694641,255.615906 
	C299.755768,254.677032 296.186462,253.826248 292.222198,253.107971 
M292.565369,231.203033 
	C288.166840,225.532440 282.340454,224.195786 277.607697,227.771515 
	C273.577728,230.816269 272.398071,236.704971 274.924866,241.163971 
	C277.417694,245.563004 282.617950,247.364960 287.389069,245.482956 
	C292.696472,243.389420 294.716278,238.402985 292.565369,231.203033 
z"/>
<path fill="#516171" opacity="1.000000" stroke="none" 
	d="
M257.505219,245.408600 
	C257.700745,246.661560 258.004761,248.025360 257.458130,248.711578 
	C251.462830,256.238068 236.535172,257.801117 228.777588,251.831970 
	C220.648315,245.576782 218.758286,232.954742 224.674362,224.429520 
	C230.623840,215.856201 243.385300,213.359360 252.268188,219.030655 
	C258.467865,222.988876 261.545471,230.783569 259.898102,238.951782 
	C250.738373,238.951782 241.488129,238.951782 232.170959,238.951782 
	C233.936249,248.192917 242.838730,249.471146 251.756927,241.969894 
	C253.531769,243.021103 255.375229,244.112946 257.505219,245.408600 
M237.746185,231.159897 
	C241.674911,231.159897 245.603622,231.159897 250.023361,231.159897 
	C248.425964,226.456833 245.328659,224.562637 241.272446,224.517624 
	C237.041626,224.470657 233.726166,226.281830 232.012894,231.159897 
	C233.944901,231.159897 235.388855,231.159897 237.746185,231.159897 
z"/>
<path fill="#536373" opacity="1.000000" stroke="none" 
	d="
M39.455574,241.281128 
	C41.815849,244.861389 44.995739,245.677032 48.418755,244.582565 
	C52.093945,243.407455 53.210957,240.176346 53.226776,236.612762 
	C53.274017,225.972168 53.243744,215.331223 53.243744,204.338623 
	C57.183872,204.338623 60.746670,204.338623 64.067078,204.338623 
	C64.067078,217.045395 65.019714,229.876480 63.762810,242.487335 
	C62.774120,252.407043 52.824837,257.105164 41.264988,255.092285 
	C32.252773,253.523010 26.602907,246.046112 27.476297,236.844696 
	C37.345688,235.458313 37.977242,235.677704 39.455574,241.281128 
z"/>
<path fill="#516171" opacity="1.000000" stroke="none" 
	d="
M328.657654,242.273254 
	C324.878082,241.363632 321.439362,240.739044 318.041107,239.942078 
	C311.612030,238.434341 308.353058,234.797287 308.158081,229.090546 
	C307.967834,223.522476 311.640686,218.889618 317.627899,217.145416 
	C327.435822,214.288132 336.798584,217.979599 339.471771,225.803711 
	C339.775269,226.692078 339.760468,227.689178 339.933563,228.923004 
	C335.598297,228.479645 331.082184,230.947311 327.962219,225.486084 
	C327.249176,224.237930 322.026154,224.186020 319.981934,225.416367 
	C317.220276,227.078476 318.949219,229.621338 321.600098,230.423264 
	C324.928711,231.430222 328.427063,231.859787 331.808289,232.712524 
	C338.548767,234.412445 341.465271,237.571564 341.518707,242.997543 
	C341.572296,248.439972 338.288971,252.624451 332.108154,254.356415 
	C325.842682,256.112091 319.574493,256.181458 313.745026,252.727951 
	C310.296875,250.685181 307.869049,247.879044 307.950195,243.017807 
	C312.119141,243.394852 316.370636,240.880905 319.793365,246.006714 
	C320.854675,247.596115 325.003906,247.836899 327.584717,247.502243 
	C330.287292,247.151810 331.556732,245.029449 328.657654,242.273254 
z"/>
<path fill="#516171" opacity="1.000000" stroke="none" 
	d="
M173.902634,221.177063 
	C173.902710,232.457626 173.902710,243.257828 173.902710,254.456314 
	C170.580582,254.456314 167.516602,254.456314 163.961197,254.456314 
	C163.961197,242.285309 163.961197,229.940475 163.961197,217.558578 
	C171.188644,215.693283 173.421524,216.382660 173.902634,221.177063 
z"/>
<path fill="#5F6E7C" opacity="1.000000" stroke="none" 
	d="
M284.349854,305.251099 
	C281.350952,306.777618 281.098022,305.088959 281.118805,302.960602 
	C281.157745,298.976257 281.130035,294.991241 281.130035,289.498352 
	C277.822906,293.751312 275.288574,297.010468 272.362366,300.773590 
	C269.625244,297.386810 267.091339,294.251495 264.205383,290.680511 
	C261.834686,295.768799 265.070038,301.772583 262.110901,306.202026 
	C261.399963,306.088806 260.688995,305.975586 259.978058,305.862366 
	C259.978058,301.798950 259.978058,297.735504 259.978058,293.672089 
	C259.978058,289.601715 259.978058,285.531342 259.978058,279.953247 
	C264.592896,285.707123 268.269012,290.290527 272.286407,295.299500 
	C276.180145,290.397369 279.835175,285.795807 283.490204,281.194214 
	C283.840851,281.260742 284.191467,281.327240 284.542084,281.393768 
	C284.542084,289.214935 284.542084,297.036102 284.349854,305.251099 
z"/>
<path fill="#5F6E7C" opacity="1.000000" stroke="none" 
	d="
M69.432434,305.966644 
	C65.680504,306.003448 62.366810,306.003448 58.675442,306.003448 
	C58.675442,297.597443 58.675442,289.416016 58.675442,280.715118 
	C61.787476,280.715118 64.745094,280.605713 67.691750,280.738770 
	C73.168686,280.986115 74.529839,282.914734 73.564140,288.426483 
	C73.409111,289.311340 73.732979,290.531067 74.285645,291.249847 
	C79.405151,297.908386 77.757294,303.501526 69.432434,305.966644 
M72.932564,300.543518 
	C74.835213,293.491852 71.611748,291.075165 62.175201,292.583130 
	C62.175201,295.937927 62.175201,299.304108 62.175201,303.729675 
	C65.958496,302.783325 69.198158,301.972931 72.932564,300.543518 
M68.842949,288.903503 
	C69.431831,287.762177 70.020714,286.620880 70.609596,285.479553 
	C67.953964,284.764404 65.298332,284.049255 62.229698,283.222870 
	C62.229698,285.836121 62.229698,287.342773 62.229698,289.027283 
	C64.391060,289.027283 66.190407,289.027283 68.842949,288.903503 
z"/>
<path fill="#5F6E7C" opacity="1.000000" stroke="none" 
	d="
M180.731964,280.804657 
	C182.972488,280.715912 184.795883,280.704987 186.619263,280.693665 
	C191.111938,280.665833 195.321838,281.140076 197.176346,286.207306 
	C198.903534,290.926666 197.659592,294.714111 192.673782,299.018250 
	C194.051529,301.140625 195.461029,303.311890 197.001312,305.684662 
	C190.231644,307.753326 190.799606,295.577759 183.095657,299.829620 
	C183.032242,300.903595 183.046265,302.670929 182.761917,304.388885 
	C182.662949,304.986816 181.669968,305.984192 181.357712,305.890564 
	C180.604202,305.664642 179.428268,304.888336 179.441345,304.359131 
	C179.634705,296.531097 179.994492,288.707184 180.731964,280.804657 
M193.405609,293.634186 
	C195.774277,285.402008 192.738113,282.672211 183.176788,284.531647 
	C183.176788,288.227600 183.176788,291.934479 183.176788,296.677338 
	C186.757538,295.803192 189.823318,295.054749 193.405609,293.634186 
z"/>
<path fill="#5B6A79" opacity="1.000000" stroke="none" 
	d="
M105.436966,300.548798 
	C106.568321,301.355530 107.356407,302.018311 108.264336,302.381622 
	C114.835831,305.011505 118.171707,302.495605 117.588341,295.865112 
	C115.934753,294.736298 114.508339,293.762543 113.081909,292.788757 
	C115.420944,292.151276 117.759979,291.513794 121.036858,290.620697 
	C121.036858,295.230133 121.165504,298.821259 120.945618,302.390930 
	C120.891235,303.273804 119.875687,304.379852 119.010872,304.882904 
	C114.617912,307.438416 106.077415,306.211090 102.710365,302.687042 
	C98.555481,298.338409 97.983688,291.136200 101.389519,286.049652 
	C104.605667,281.246399 111.310539,279.080414 116.916344,281.314880 
	C118.181183,281.819031 119.046478,283.325562 120.095688,284.370667 
	C118.868782,284.357788 117.602165,284.539001 116.422020,284.297546 
	C111.977074,283.388031 107.569168,283.074005 104.671677,287.316956 
	C101.760040,291.580597 101.904808,296.062958 105.436966,300.548798 
z"/>
<path fill="#586877" opacity="1.000000" stroke="none" 
	d="
M169.102829,289.138092 
	C171.747589,301.948303 165.436615,307.001343 148.478745,305.776978 
	C148.478745,297.761383 148.478745,289.704041 148.478745,281.614685 
	C158.267731,278.755829 165.553528,281.263458 169.102829,289.138092 
M166.133514,296.015167 
	C166.815033,286.204834 162.818054,282.953400 151.654022,284.477600 
	C151.654022,290.487885 151.654022,296.532562 151.654022,302.542694 
	C160.328110,303.671997 162.925003,302.613464 166.133514,296.015167 
z"/>
<path fill="#5B6A79" opacity="1.000000" stroke="none" 
	d="
M210.722061,299.889893 
	C211.759064,301.233459 212.691284,302.619415 213.850006,302.845795 
	C215.937469,303.253571 218.179459,302.802063 220.318329,303.046692 
	C221.247726,303.153015 222.081650,304.094116 222.503281,305.711334 
	C217.597565,305.711334 212.691864,305.711334 207.482407,305.711334 
	C207.482407,297.526581 207.482407,289.432251 207.482407,281.342438 
	C215.969376,279.598297 221.243118,280.447937 221.829666,283.995361 
	C218.320236,283.995361 214.865311,283.995361 211.072083,283.995361 
	C211.072083,286.057404 211.072083,287.760742 211.072083,289.964203 
	C212.798218,289.964203 214.452789,289.777527 216.033722,290.037933 
	C216.906448,290.181702 217.655655,291.075470 218.460541,291.631104 
	C217.623505,292.180634 216.844193,293.039124 215.936188,293.208710 
	C214.505829,293.475861 212.988922,293.279724 210.719360,293.279724 
	C210.719360,295.571075 210.719360,297.490326 210.722061,299.889893 
z"/>
<path fill="#586877" opacity="1.000000" stroke="none" 
	d="
M246.057785,301.465637 
	C242.566910,301.158417 239.205475,300.421387 236.331818,301.292847 
	C234.220490,301.933105 232.748032,304.680023 230.990860,306.488129 
	C230.537796,306.119659 230.084732,305.751190 229.631668,305.382721 
	C233.156586,297.243713 236.681503,289.104675 240.616272,280.019287 
	C244.537918,289.045593 248.080750,297.200043 251.623596,305.354462 
	C251.129196,305.717926 250.634796,306.081390 250.140396,306.444855 
	C248.892395,304.871765 247.644394,303.298676 246.057785,301.465637 
M237.118408,295.955902 
	C239.269516,296.801239 241.420624,297.646545 243.571716,298.491852 
	C243.885391,298.054840 244.199066,297.617828 244.512726,297.180817 
	C243.339157,294.399445 242.165573,291.618042 240.673477,288.081787 
	C239.326782,291.031403 238.372070,293.122437 237.118408,295.955902 
z"/>
<path fill="#586877" opacity="1.000000" stroke="none" 
	d="
M306.824524,305.167145 
	C302.080475,306.752502 297.975800,306.394958 293.265991,302.772705 
	C295.051147,302.271851 296.130188,301.656647 297.139923,301.754791 
	C298.913147,301.927094 300.657043,302.902313 302.388031,302.840088 
	C303.645477,302.794830 305.669800,301.823120 305.902924,300.898926 
	C306.230713,299.599365 305.615936,297.602600 304.677551,296.554840 
	C303.395233,295.123108 301.453461,294.264160 299.751892,293.229584 
	C296.522705,291.266205 293.256317,289.279327 294.879517,284.660248 
	C296.113800,281.147949 300.295868,279.687531 305.110443,280.984100 
	C306.174042,281.270508 307.140381,281.918030 308.115784,283.705231 
	C306.865143,283.801788 305.583160,283.757050 304.370880,284.026276 
	C302.276367,284.491425 300.225128,285.151520 298.155762,285.729828 
	C299.354340,287.325409 300.360352,289.130798 301.805725,290.457550 
	C303.248840,291.782318 305.236053,292.493591 306.802185,293.709015 
	C311.152405,297.085022 311.234283,300.799927 306.824524,305.167145 
z"/>
<path fill="#586877" opacity="1.000000" stroke="none" 
	d="
M167.300400,213.625488 
	C164.288162,213.924286 163.213943,212.804214 163.401688,210.205246 
	C163.541641,208.267609 163.429291,206.311737 163.429291,204.168961 
	C167.086899,204.168961 170.182846,204.168961 173.604645,204.168961 
	C173.604645,207.182617 173.604645,210.074234 173.604645,213.626480 
	C171.613815,213.626480 169.675018,213.626480 167.300400,213.625488 
z"/>
<path fill="#6E7C89" opacity="1.000000" stroke="none" 
	d="
M87.917313,280.695984 
	C88.799568,281.275299 89.706139,281.836761 89.714470,282.411194 
	C89.817451,289.515900 89.846977,296.623535 89.713211,303.727020 
	C89.698593,304.503387 88.549782,305.258362 87.927032,306.023254 
	C87.327423,305.414551 86.211884,304.810272 86.206650,304.196503 
	C86.141930,296.607269 86.227226,289.016479 86.346008,281.427185 
	C86.349983,281.173401 87.114311,280.931519 87.917313,280.695984 
z"/>
<path fill="#F1F3F4" opacity="1.000000" stroke="none" 
	d="
M181.145233,115.145119 
	C177.304047,119.294968 173.713577,123.195488 169.807877,127.438461 
	C168.037338,125.332855 166.968277,124.061462 165.645218,122.488022 
	C166.456512,121.561249 167.324753,120.444824 168.317764,119.453369 
	C189.517410,98.286972 210.731079,77.134613 231.942047,55.979557 
	C232.413422,55.509449 232.805893,54.805222 233.371689,54.613888 
	C235.068878,54.039963 236.833832,53.666409 238.572342,53.214661 
	C238.265915,55.104782 238.633301,57.635311 237.544037,58.781384 
	C230.323837,66.378059 222.790421,73.677017 215.360611,81.074539 
	C204.038345,92.347572 192.717422,103.621979 181.145233,115.145119 
z"/>
<path fill="#FAFBFB" opacity="1.000000" stroke="none" 
	d="
M159.642273,127.470505 
	C162.124466,129.690628 164.367447,131.665817 166.209763,133.288162 
	C156.155441,143.553741 146.688751,153.219330 136.647919,163.471146 
	C134.139175,161.095139 131.455078,158.553055 128.399582,155.659241 
	C129.565750,154.287262 130.411331,153.135422 131.412277,152.139755 
	C139.298813,144.294708 147.167725,136.430374 155.183105,128.718567 
	C156.162216,127.776535 157.976074,127.702080 159.642273,127.470505 
z"/>
<path fill="#FCFCFC" opacity="1.000000" stroke="none" 
	d="
M224.377594,156.632416 
	C216.937866,148.999878 209.750687,141.616516 202.449753,134.116287 
	C204.846542,131.717041 207.535248,129.025574 209.832397,126.726082 
	C219.568253,136.531128 229.198486,146.229813 239.283463,156.386459 
	C237.312180,158.374283 234.686447,161.022049 230.941010,164.798904 
	C228.558167,161.809494 226.594162,159.345535 224.377594,156.632416 
z"/>
<path fill="#FCFCFC" opacity="1.000000" stroke="none" 
	d="
M157.315796,76.684036 
	C164.563614,84.018715 171.560776,91.104050 178.636536,98.268990 
	C177.213348,99.649498 175.949615,100.875320 174.134430,102.636047 
	C159.513687,87.827774 144.973999,73.190598 130.624283,58.369492 
	C129.657257,57.370689 130.124054,54.983681 129.923996,53.242310 
	C131.533676,53.579395 133.659302,53.375351 134.670807,54.339798 
	C142.259171,61.575142 149.627762,69.040993 157.315796,76.684036 
z"/>
<path fill="#F1F3F4" opacity="1.000000" stroke="none" 
	d="
M191.183060,118.709419 
	C191.482834,116.669815 192.031647,114.893593 192.853775,112.232712 
	C197.054184,116.253670 200.145203,119.212646 203.460861,122.386650 
	C202.079300,123.838470 200.867416,125.111992 198.395172,127.709969 
	C195.966431,124.662430 193.699265,121.817612 191.183060,118.709419 
z"/>
<path fill="#F9FAFA" opacity="1.000000" stroke="none" 
	d="
M124.400848,231.981537 
	C124.429710,226.349243 124.452065,221.211777 124.501099,216.074570 
	C124.503990,215.772385 124.721954,215.472260 125.042183,214.654358 
	C132.291702,214.239410 139.730850,213.426849 145.126114,220.368896 
	C148.701706,224.969589 149.019974,232.052536 145.821579,237.244049 
	C140.800369,245.394302 132.816116,244.378418 124.400230,243.921783 
	C124.400230,240.016479 124.400230,236.246460 124.400848,231.981537 
z"/>
<path fill="#FCFCFC" opacity="1.000000" stroke="none" 
	d="
M196.235199,246.048035 
	C189.522964,244.189606 186.407028,239.645508 187.578430,233.982574 
	C188.715881,228.483688 193.265793,225.270889 198.907394,225.982895 
	C203.882599,226.610825 207.842224,231.317474 207.687027,236.418930 
	C207.518845,241.947327 203.249146,245.681030 196.235199,246.048035 
z"/>
<path fill="#FCFCFC" opacity="1.000000" stroke="none" 
	d="
M292.728577,231.550522 
	C294.716278,238.402985 292.696472,243.389420 287.389069,245.482956 
	C282.617950,247.364960 277.417694,245.563004 274.924866,241.163971 
	C272.398071,236.704971 273.577728,230.816269 277.607697,227.771515 
	C282.340454,224.195786 288.166840,225.532440 292.728577,231.550522 
z"/>
<path fill="#F9FAFA" opacity="1.000000" stroke="none" 
	d="
M237.289505,231.159897 
	C235.388855,231.159897 233.944901,231.159897 232.012894,231.159897 
	C233.726166,226.281830 237.041626,224.470657 241.272446,224.517624 
	C245.328659,224.562637 248.425964,226.456833 250.023361,231.159897 
	C245.603622,231.159897 241.674911,231.159897 237.289505,231.159897 
z"/>
<path fill="#FCFCFC" opacity="1.000000" stroke="none" 
	d="
M72.685196,300.853027 
	C69.198158,301.972931 65.958496,302.783325 62.175201,303.729675 
	C62.175201,299.304108 62.175201,295.937927 62.175201,292.583130 
	C71.611748,291.075165 74.835213,293.491852 72.685196,300.853027 
z"/>
<path fill="#FCFCFC" opacity="1.000000" stroke="none" 
	d="
M68.416351,288.965393 
	C66.190407,289.027283 64.391060,289.027283 62.229698,289.027283 
	C62.229698,287.342773 62.229698,285.836121 62.229698,283.222870 
	C65.298332,284.049255 67.953964,284.764404 70.609596,285.479553 
	C70.020714,286.620880 69.431831,287.762177 68.416351,288.965393 
z"/>
<path fill="#FCFCFC" opacity="1.000000" stroke="none" 
	d="
M193.147354,293.970245 
	C189.823318,295.054749 186.757538,295.803192 183.176788,296.677338 
	C183.176788,291.934479 183.176788,288.227600 183.176788,284.531647 
	C192.738113,282.672211 195.774277,285.402008 193.147354,293.970245 
z"/>
<path fill="#F9FAFA" opacity="1.000000" stroke="none" 
	d="
M166.062500,296.427734 
	C162.925003,302.613464 160.328110,303.671997 151.654022,302.542694 
	C151.654022,296.532562 151.654022,290.487885 151.654022,284.477600 
	C162.818054,282.953400 166.815033,286.204834 166.062500,296.427734 
z"/>
<path fill="#F1F3F4" opacity="1.000000" stroke="none" 
	d="
M237.267883,295.584686 
	C238.372070,293.122437 239.326782,291.031403 240.673477,288.081787 
	C242.165573,291.618042 243.339157,294.399445 244.512726,297.180817 
	C244.199066,297.617828 243.885391,298.054840 243.571716,298.491852 
	C241.420624,297.646545 239.269516,296.801239 237.267883,295.584686 
z"/>
</svg>